# xmcd
# Copyright (C) 1995-1998 Ti Kan
#
# Track frame offsets:
#       150
#       16077
#       40624
#       56733
#       71369
#       92687
#       109503
#       123721
#       139994
#       157035
#
# Disc length: 2394 seconds
#
# Revision: 0
# Processed by: cddbd v1.5.2PL0 Copyright (c) Steve Scherf et al.
# Submitted via: CD-Import v1.0
#
DISCID=8109580a
DTITLE=Aerodrum - Watching The Trees Grow
DYEAR=10
DGENRE=
TTITLE0=Plane
TTITLE1=Save Me
TTITLE2=Change Your Story
TTITLE3=Don't Turn Me Down
TTITLE4=Rain In May
TTITLE5=Stranger
TTITLE6=Love Comes And Goes
TTITLE7=A Chance After This
TTITLE8=Wonderful Things*
TTITLE9=Back On My Way
EXTD=
EXTT0=
EXTT1=
EXTT2=
EXTT3=
EXTT4=
EXTT5=
EXTT6=
EXTT7=
EXTT8=
EXTT9=
PLAYORDER=
